# xmcd CD database file
#
# Track frame offsets:
#	150
#	18825
#	35680
#	54812
#	70943
#	88190
#	101548
#	120872
#	135703
#	152157
#
# Disc length: 2257 seconds
#
# Revision: 0
# Processed by: cddbd v1.5.1PL2 Copyright (c) Steve Scherf et al.
# Submitted via: CDex 1.51
#
DISCID=7708cf0a
DTITLE=Middler Mark - the Voice
DYEAR=1900
DGENRE=Country
TTITLE0=the Voice
TTITLE1=the Vancouver Song
TTITLE2=Time
TTITLE3=Talk to me
TTITLE4=Wherever you go
TTITLE5=Why
TTITLE6=Stand by Lover
TTITLE7=Sometimes a Song
TTITLE8=Baritone Saxophone
TTITLE9=Never say Godbye
EXTD=
EXTT0=
EXTT1=
EXTT2=
EXTT3=
EXTT4=
EXTT5=
EXTT6=
EXTT7=
EXTT8=
EXTT9=
PLAYORDER=
